<svg xmlns="http://www.w3.org/2000/svg" ><style>.generator {stroke: black; stroke-width: 5; fill: transparent;}</style><defs><g id="Identity" class="generator"><path d="M 0 50 L 100 50"></path></g><g id="Twist" class="generator"><g transform="translate(0, 50)"><path d="M 0 0    C 50 0    50 100  100 100"></path><path d="M 0 100  C 50 100  50 0    100 0  "></path></g></g><g id="Add" class="generator"><g transform="translate(0, 50)"><mask id="clip-circle"><rect x="-50" y="-50" width="200" height="200" fill="white"></rect><circle cx="50" cy="50" r="20" fill="black"></circle></mask><circle cx="50" cy="50" r="20"></circle><path mask="url(#clip-circle)" d="M 0  0   C 50  0   50 50 50 50"></path><path mask="url(#clip-circle)" d="M 0 100  C 50 100  50 50 50 50"></path><path d="M 70 50 L 100 50"></path></g></g><g id="Copy" class="generator"><g transform="translate(0, 50)"><circle cx="50" cy="50" r="20" fill="black"></circle><path d="M 50 50 C 50 50  50 0   100 0 "></path><path d="M 50 50 C 50 50  50 100 100 100"></path><path d="M 0 50 L 30 50"></path></g></g><g id="Zero" class="generator"><circle cx="80" cy="50" r="20"></circle><path d="M 0 50 L 60 50"></path></g><g id="Discard" class="generator"><circle cx="20" cy="50" r="20" fill="black"></circle><path d="M 20 50 L 100 50"></path></g></defs><g transform="scale(0.5)"><use x="0" y="0" href="#Copy"></use><use x="0" y="200" href="#Copy"></use><use x="200" y="0" href="#Identity"></use><use x="200" y="100" href="#Twist"></use><use x="200" y="300" href="#Identity"></use><use x="400" y="0" href="#Add"></use><use x="400" y="200" href="#Add"></use><path d="M 100 50 C 150 50 150 50 200 50" fill="transparent" stroke="black" stroke-width="5"></path><path d="M 100 150 C 150 150 150 150 200 150" fill="transparent" stroke="black" stroke-width="5"></path><path d="M 100 250 C 150 250 150 250 200 250" fill="transparent" stroke="black" stroke-width="5"></path><path d="M 100 350 C 150 350 150 350 200 350" fill="transparent" stroke="black" stroke-width="5"></path><path d="M 300 50 C 350 50 350 50 400 50" fill="transparent" stroke="black" stroke-width="5"></path><path d="M 300 150 C 350 150 350 150 400 150" fill="transparent" stroke="black" stroke-width="5"></path><path d="M 300 250 C 350 250 350 250 400 250" fill="transparent" stroke="black" stroke-width="5"></path><path d="M 300 350 C 350 350 350 350 400 350" fill="transparent" stroke="black" stroke-width="5"></path></g></svg>
